<?xml version="1.0" encoding="UTF-8" standalone="no"?>
<svg
   xmlns:dc="http://purl.org/dc/elements/1.1/"
   xmlns:cc="http://creativecommons.org/ns#"
   xmlns:rdf="http://www.w3.org/1999/02/22-rdf-syntax-ns#"
   xmlns:svg="http://www.w3.org/2000/svg"
   xmlns="http://www.w3.org/2000/svg"
   xmlns:sodipodi="http://sodipodi.sourceforge.net/DTD/sodipodi-0.dtd"
   xmlns:inkscape="http://www.inkscape.org/namespaces/inkscape"
   width="775.68994"
   height="256.57291"
   viewBox="0 0 775.68994 256.57291"
   version="1.1"
   id="svg18"
   sodipodi:docname="logo.svg"
   inkscape:version="0.92.2 5c3e80d, 2017-08-06">
  <metadata
     id="metadata24">
    <rdf:RDF>
      <cc:Work
         rdf:about="">
        <dc:format>image/svg+xml</dc:format>
        <dc:type
           rdf:resource="http://purl.org/dc/dcmitype/StillImage" />
        <dc:title></dc:title>
      </cc:Work>
    </rdf:RDF>
  </metadata>
  <defs
     id="defs22">
    <filter
       inkscape:collect="always"
       style="color-interpolation-filters:sRGB"
       id="filter967"
       x="-0.032355286"
       width="1.0647106"
       y="-0.057266809"
       height="1.1145335">
      <feGaussianBlur
         inkscape:collect="always"
         stdDeviation="1.3546558"
         id="feGaussianBlur969" />
    </filter>
    <filter
       inkscape:collect="always"
       style="color-interpolation-filters:sRGB"
       id="filter971"
       x="-0.019729562"
       width="1.0394591"
       y="-0.034834418"
       height="1.0696688">
      <feGaussianBlur
         inkscape:collect="always"
         stdDeviation="1.3546558"
         id="feGaussianBlur973" />
    </filter>
    <filter
       inkscape:collect="always"
       style="color-interpolation-filters:sRGB"
       id="filter975"
       x="-0.012688104"
       width="1.0253762"
       y="-0.027930126"
       height="1.0558603">
      <feGaussianBlur
         inkscape:collect="always"
         stdDeviation="1.3546558"
         id="feGaussianBlur977" />
    </filter>
  </defs>
  <sodipodi:namedview
     pagecolor="#ffffff"
     bordercolor="#666666"
     borderopacity="1"
     objecttolerance="10"
     gridtolerance="10"
     guidetolerance="10"
     inkscape:pageopacity="0"
     inkscape:pageshadow="2"
     inkscape:window-width="1207"
     inkscape:window-height="743"
     id="namedview20"
     showgrid="false"
     fit-margin-top="0"
     fit-margin-left="0"
     fit-margin-right="0"
     fit-margin-bottom="0"
     inkscape:zoom="0.27594411"
     inkscape:cx="389.81446"
     inkscape:cy="573.19407"
     inkscape:window-x="2440"
     inkscape:window-y="172"
     inkscape:window-maximized="0"
     inkscape:current-layer="svg18" />
  <style
     id="style2">.st0{fill:#fff}.st4{fill:#2e2e2e}</style>
  <g
     id="g992"
     transform="matrix(1.5592883,0,0,1.5725509,-0.8389324,-1446.108)"
     style="stroke-width:0.6386081">
    <text
       id="text836"
       y="967.10168"
       x="155.97656"
       style="font-style:normal;font-variant:normal;font-weight:normal;font-stretch:normal;font-size:48px;font-family:'Blenda Script';-inkscape-font-specification:'Blenda Script';font-variant-ligatures:normal;font-variant-caps:normal;font-variant-numeric:normal;font-feature-settings:normal;text-align:center;writing-mode:lr-tb;text-anchor:middle;opacity:1;fill:#00008c;fill-opacity:1;fill-rule:nonzero;stroke:#e3a0ac;stroke-width:1.91582441;stroke-miterlimit:4;stroke-dasharray:none;stroke-opacity:1"
       xml:space="preserve"><tspan
         style="font-style:normal;font-variant:normal;font-weight:normal;font-stretch:normal;font-family:'OCR A Extended';-inkscape-font-specification:'OCR A Extended';fill:#00008c;fill-opacity:1;stroke:none;stroke-width:1.91582441"
         y="967.10168"
         x="155.97656"
         id="tspan834"
         sodipodi:role="line">kinori tech</tspan></text>
    <text
       id="text840"
       y="1044.5544"
       x="124.66003"
       style="font-style:normal;font-variant:normal;font-weight:normal;font-stretch:normal;font-size:48px;font-family:'OCR A Extended';-inkscape-font-specification:'OCR A Extended';font-variant-ligatures:normal;font-variant-caps:normal;font-variant-numeric:normal;font-feature-settings:normal;text-align:center;writing-mode:lr-tb;text-anchor:middle;opacity:1;fill:#009cf0;fill-opacity:1;fill-rule:nonzero;stroke:none;stroke-width:1.91582441;stroke-miterlimit:4;stroke-dasharray:none;stroke-opacity:1"
       xml:space="preserve"><tspan
         style="fill:#009cf0;fill-opacity:1;stroke-width:1.91582441"
         y="1044.5544"
         x="124.66003"
         id="tspan838"
         sodipodi:role="line">soyokaze</tspan></text>
    <g
       transform="translate(0,922.34373)"
       style="opacity:0.68900003;fill:#005ce0;stroke-width:0.6386081"
       id="g982">
      <path
         style="fill:#005ce0;fill-opacity:1;stroke:none;stroke-width:0.6386081px;stroke-linecap:butt;stroke-linejoin:miter;stroke-opacity:1;filter:url(#filter975)"
         d="m 238.51299,129.85596 c 0,0 19.15425,-24.79959 61.30293,-22.67586 33.9946,1.71288 52.09445,20.15966 94.68925,41.41414 13.66346,6.81796 51.06896,16.1335 73.03125,-1.92187 37.40187,-30.74838 30.38173,-67.476354 13.73182,-85.674987 -19.00019,-20.767527 -63.8495,-32.244361 -85.02883,-0.809401 -17.71808,26.297682 -3.0156,51.845578 14.12123,58.777348 17.13683,6.93177 31.83619,-8.22824 31.55078,-19.058597 -22.23086,14.592237 -35.8533,-8.705266 -26.93844,-20.898034 8.91486,-12.192767 27.37824,-14.989297 38.06577,3.439937 8.8373,15.238762 -3.80559,48.840084 -25.66303,50.553064 -47.69942,3.73823 -65.66488,-36.824375 -124.70204,-37.670398 -35.16161,-0.503877 -64.16069,34.524658 -64.16069,34.524658 z"
         id="path939"
         inkscape:connector-curvature="0"
         sodipodi:nodetypes="cssssszczsssc" />
      <path
         sodipodi:nodetypes="cszssssszszsc"
         inkscape:connector-curvature="0"
         id="path941"
         d="m 223.98122,93.833437 c 0,0 8.32325,-19.471994 36.28579,-25.271481 22.55291,-4.677517 48.24572,6.540657 69.05458,10.916261 20.80886,4.375604 38.45288,2.740347 49.7626,-12.803344 19.26051,-26.470971 6.14868,-50.18047 -7.85126,-59.2335452 -15.97617,-10.33099 -42.62603,-11.397353 -51.33468,12.6891282 -8.43923,23.341379 4.56322,33.203264 13.74093,35.187069 14.87356,3.214987 23.53833,-16.34852 19.40268,-13.977197 -13.02863,7.470428 -22.83109,-2.150597 -19.06792,-11.63838 3.76317,-9.487782 13.56957,-14.610549 23.70429,-4.390069 8.38017,8.451114 12.27218,32.235662 -7.55068,39.109749 -19.82286,6.874087 -51.20077,-13.6041 -90.00535,-4.089811 -23.1114,5.666563 -36.14098,33.50162 -36.14098,33.50162 z"
         style="fill:#005ce0;fill-opacity:1;stroke:none;stroke-width:0.6386081px;stroke-linecap:butt;stroke-linejoin:miter;stroke-opacity:1;filter:url(#filter971)" />
      <path
         style="fill:#005ce0;fill-opacity:1;stroke:none;stroke-width:0.6386081px;stroke-linecap:butt;stroke-linejoin:miter;stroke-opacity:1;filter:url(#filter967)"
         d="m 109.54341,93.861359 c 0,0 5.07534,-11.844478 22.1263,-15.372207 13.75228,-2.845253 29.41921,3.97857 42.10801,6.640174 12.6888,2.661604 23.44775,1.666906 30.34417,-7.788054 11.74465,-16.101838 3.74934,-30.523917 -4.78753,-36.030749 -9.74193,-6.284164 -25.99244,-6.932814 -31.30279,7.718579 -5.14606,14.198161 2.78255,20.196976 8.37892,21.40369 9.06958,1.955622 14.35318,-9.944525 11.83135,-8.502089 -7.94459,4.544134 -13.92192,-1.308172 -11.62722,-7.079427 2.29471,-5.771255 8.27444,-8.887346 14.45437,-2.670404 5.11005,5.140668 7.48332,19.608401 -4.60424,23.78979 -12.08756,4.181389 -31.22114,-8.27514 -54.88334,-2.487762 -14.09284,3.446873 -22.038,20.378459 -22.038,20.378459 z"
         id="path945"
         inkscape:connector-curvature="0"
         sodipodi:nodetypes="cszssssszszsc" />
    </g>
  </g>
</svg>
